<?xml version="1.0" encoding="UTF-8" standalone="no"?> <!-- Created with Vectornator for iOS (http://vectornator.io/) --><!DOCTYPE svg PUBLIC "-//W3C//DTD SVG 1.1//EN" "http://www.w3.org/Graphics/SVG/1.1/DTD/svg11.dtd">
<svg style="fill-rule:evenodd;clip-rule:evenodd;stroke-linecap:round;stroke-linejoin:round;" xmlns:vectornator="http://vectornator.io" xmlns:xlink="http://www.w3.org/1999/xlink" xmlns="http://www.w3.org/2000/svg" xml:space="preserve" version="1.1" viewBox="0 0 512 512">
<metadata>
<vectornator:setting key="DisplayWhiteBackground" value="0"/>
<vectornator:setting key="RulersVisible" value="1"/>
<vectornator:setting key="SnapToEdges" value="0"/>
<vectornator:setting key="Units" value="Pixels"/>
<vectornator:setting key="DynamicGuides" value="1"/>
<vectornator:setting key="SnapToPoints" value="0"/>
<vectornator:setting key="CMYKEnabledKey" value="0"/>
<vectornator:setting key="SnapToGrid" value="0"/>
<vectornator:setting key="SnapToGuides" value="1"/>
<vectornator:setting key="ShowGrid" value="1"/>
<vectornator:setting key="GridSpacing" value="36"/>
</metadata>
<defs/>
<g id="Layer 1" vectornator:layerName="Layer 1" visibility="hidden">
<g opacity="1">
<path stroke="#090808" stroke-width="21.74" d="M446.398+63.0521L65.6022+63.0521C56.2351+63.0521+48.6416+81.6852+48.6416+104.67L48.6416+380.599C48.6416+403.584+56.2351+422.217+65.6022+422.217L446.398+422.217C455.765+422.217+463.358+403.584+463.358+380.599L463.358+104.67C463.358+81.6852+455.765+63.0521+446.398+63.0521Z" fill="#ddac2f" stroke-linecap="round" opacity="1" stroke-linejoin="round"/>
<g opacity="1">
<path stroke="#ab03a7" stroke-width="21.74" d="M409.201+319.407L463.358+319.407" fill="none" stroke-linecap="round" opacity="1" stroke-linejoin="round"/>
<path stroke="#ab03a7" stroke-width="21.74" d="M48.6416+319.407L91.0891+319.407" fill="none" stroke-linecap="round" opacity="1" stroke-linejoin="round"/>
<path stroke="#ab03a7" stroke-width="21.74" d="M91.0891+319.407L117.436+165.863" fill="none" stroke-linecap="round" opacity="1" stroke-linejoin="round"/>
<path stroke="#ab03a7" stroke-width="21.74" d="M117.436+165.863L180.375+165.863" fill="none" stroke-linecap="round" opacity="1" stroke-linejoin="round"/>
<path stroke="#ab03a7" stroke-width="21.74" d="M180.375+165.863L204.28+319.407" fill="none" stroke-linecap="round" opacity="1" stroke-linejoin="round"/>
<path stroke="#ab03a7" stroke-width="21.74" d="M204.28+319.407L266.246+319.407" fill="none" stroke-linecap="round" opacity="1" stroke-linejoin="round"/>
<path stroke="#ab03a7" stroke-width="21.74" d="M266.246+319.407L301.375+165.863" fill="none" stroke-linecap="round" opacity="1" stroke-linejoin="round"/>
<path stroke="#ab03a7" stroke-width="21.74" d="M301.375+165.863L366.266+165.863" fill="none" stroke-linecap="round" opacity="1" stroke-linejoin="round"/>
<path stroke="#ab03a7" stroke-width="21.74" d="M366.266+165.863L393.588+319.407" fill="none" stroke-linecap="round" opacity="1" stroke-linejoin="round"/>
<path stroke="#ab03a7" stroke-width="21.74" d="M393.588+319.407L409.201+319.407" fill="none" stroke-linecap="round" opacity="1" stroke-linejoin="round"/>
</g>
</g>
</g>
<g id="Layer 3" vectornator:layerName="Layer 3">
<g opacity="1">
<path stroke="#090808" stroke-width="21.74" d="M456.54+87.3069L55.4604+87.3069C45.5943+87.3069+37.5963+104.81+37.5963+126.401L37.5963+385.599C37.5963+407.19+45.5943+424.693+55.4604+424.693L456.54+424.693C466.406+424.693+474.404+407.19+474.404+385.599L474.404+126.401C474.404+104.81+466.406+87.3069+456.54+87.3069Z" fill="#ddac2f" stroke-linecap="round" opacity="1" stroke-linejoin="round"/>
<path stroke="#ab03a7" stroke-width="21.74" d="M152.737+189.746C106.809+203.378+101.225+348.236+101.225+303.907" fill="none" stroke-linecap="round" opacity="1" stroke-linejoin="round"/>
<path stroke="#ab03a7" stroke-width="21.74" d="M150.448+194.842C163.781+159.227+182.904+335.445+196.237+299.83" fill="none" stroke-linecap="round" opacity="1" stroke-linejoin="round"/>
<path stroke="#ab03a7" stroke-width="21.74" d="M120.685+252.942C143.845+247.786+165.367+253.961+188.224+253.961" fill="none" stroke-linecap="round" opacity="1" stroke-linejoin="round"/>
<path stroke="#ab03a7" stroke-width="21.74" d="M242.025+206.055C242.025+227.158+213.859+321.852+234.012+303.907" fill="none" stroke-linecap="round" opacity="1" stroke-linejoin="round"/>
<path stroke="#ab03a7" stroke-width="21.74" d="M246.604+205.035C248.759+212.71+290.82+278.424+300.406+278.424" fill="none" stroke-linecap="round" opacity="1" stroke-linejoin="round"/>
<path stroke="#ab03a7" stroke-width="21.74" d="M314.143+199.939C314.143+226.478+305.251+255.053+298.117+280.463" fill="none" stroke-linecap="round" opacity="1" stroke-linejoin="round"/>
<path stroke="#ab03a7" stroke-width="21.74" d="M316.432+202.997C332.47+224.418+349.629+269.418+349.629+295.752" fill="none" stroke-linecap="round" opacity="1" stroke-linejoin="round"/>
<path stroke="#ab03a7" stroke-width="21.74" d="M411.444+204.016C402.521+204.016+410.526+306.152+416.023+298.81" fill="none" stroke-linecap="round" opacity="1" stroke-linejoin="round"/>
</g>
</g>
<g id="Layer 2" vectornator:layerName="Layer 2" visibility="hidden">
<g opacity="1">
<path stroke="#090808" stroke-width="21.74" d="M476.352+33.6033L35.6482+33.6033C24.8075+33.6033+16.0193+56.6786+16.0193+85.1435L16.0193+426.857C16.0193+455.321+24.8075+478.397+35.6482+478.397L476.352+478.397C487.193+478.397+495.981+455.321+495.981+426.857L495.981+85.1435C495.981+56.6786+487.193+33.6033+476.352+33.6033Z" fill="#ddac2f" stroke-linecap="round" opacity="1" stroke-linejoin="round"/>
<g opacity="1">
<g>
<path stroke-linecap="round" stroke-width="10.23" stroke="#100f10" d="M453.843+384.005C424.237+384.005+81.1641+384.005+81.1641+384.005" fill="none" stroke-linejoin="round"/>
<path d="M424.687+418.654L462.197+387.964L467.035+384.005L462.197+380.046L424.687+349.356C422.501+347.567+419.278+347.89+417.489+350.076C415.7+352.262+416.023+355.485+418.209+357.274L455.719+387.964L455.719+380.046L418.209+410.736C416.023+412.525+415.7+415.748+417.489+417.934C419.278+420.12+422.501+420.443+424.687+418.654Z" fill="#100f10"/>
</g>
</g>
<g opacity="1">
<g>
<path stroke-linecap="round" stroke-width="9.31" stroke="#0d0d0f" d="M81.1641+123.904C81.1641+146.379+81.1641+384.005+81.1641+384.005" fill="none" stroke-linejoin="round"/>
<path d="M112.697+150.438L84.7669+116.301L81.1641+111.898L77.5614+116.301L49.6314+150.438C48.0034+152.428+48.2967+155.361+50.2864+156.989C52.2762+158.617+55.209+158.323+56.8369+156.334L84.7669+122.197L77.5614+122.197L105.491+156.334C107.119+158.323+110.052+158.617+112.042+156.989C114.032+155.361+114.325+152.428+112.697+150.438Z" fill="#0d0d0f"/>
</g>
</g>
<path stroke="#ab03a7" stroke-width="2.06" d="M99.9696+319.474C108.307+320.72+119.78+316.739+127.843+314.515C132.942+313.107+138.415+315.194+134.899+314.411C133.303+314.055+136.067+287.227+136.219+285.441C138.019+264.268+138.671+265.955+141.548+250.554C142.758+244.076+140.235+214.599+147.49+211.553C155.336+208.259+159.612+228.88+162.377+230.155C163.378+230.616+161.209+226.174+160.662+227.181C159.58+229.173+164.218+229.85+165.663+231.559C168.079+234.415+167.436+242.293+172.141+243.663C174.883+244.461+170.995+235.334+173.779+234.723C178.08+233.781+177.187+238.413+179.281+240.37C179.887+240.937+180.731+239.609+181.499+239.349C188.216+237.077+192.024+240.426+197.429+234.535C198.061+233.846+198.662+232.93+199.901+233.732C203.33+235.953+205.114+241.216+209.039+242.091C209.281+242.145+209.352+256.251+209.696+257.538C215.047+277.523+216.436+300.238+218.872+321.044C219.209+323.926+217.631+343.435+218.626+343.376C220.974+343.237+215.506+338.988+215.762+336.491C216.601+328.292+216.31+311.635+221.088+308.259C225.604+305.068+234.926+308.158+239.99+308.158C243.057+308.158+252.248+307.891+249.191+308.158C245.691+308.463+258.316+310.901+259.707+307.456C259.762+307.32+270.115+306.463+272.789+308.091C274.14+308.914+269.607+305.767+268.313+306.687C266.854+307.725+268.313+302.942+268.313+301.07C268.313+298.515+268.58+296.733+269.02+294.213C270.589+285.23+269.627+280.352+269.627+270.878C269.627+262.771+276.089+201.705+280.08+200.029C282.269+199.111+283.553+204.444+283.911+205.744C285.812+212.631+292.96+247.637+297.492+251.397C299.213+252.825+301.189+246.622+303.083+247.775C304.761+248.796+304.206+254.696+305.649+253.325C309.258+249.897+320.991+252.49+321.988+250.022C323.191+247.043+339.884+252.607+341.236+249.261C342.067+247.203+339.955+257.208+341.701+255.966C343.234+254.876+341.796+263.945+341.796+267.368C341.796+276.742+342.95+284.643+345.005+293.384C345.703+296.352+349.458+299.16+350.566+302.358C357.184+321.455+355.709+314.477+383.92+314.477L383.92+319.961C356.657+319.961+346.647+323.132+340.026+294.714C337.114+282.218+334.862+267.956+337.32+254.729C337.423+254.178+339.36+247.815+341.201+249.179C351.536+256.835+325.189+255.144+322.142+256.067C319.442+256.885+310.949+255.32+313.755+255.264C318.02+255.178+304.851+260.339+300.516+253.325C300.459+253.233+303.01+253.376+303.583+252.455C305.412+249.52+296.7+257.348+294.039+255.264C288.18+250.675+281.681+223.096+280.158+215.713C279.432+212.189+276.985+205.258+280.738+205.513C281.614+205.573+282.139+202.4+281.332+202.771C279.691+203.528+281.748+222.323+281.149+224.854C275.632+248.174+279.075+272.528+274.053+293.884C273.416+296.594+274.961+307.598+272.694+309.328C271.292+310.398+265.938+307.942+267.656+308.091C275.142+308.744+267.967+312.601+263.65+313.642C262.494+313.921+260.7+313.19+259.864+312.839C258.757+312.374+248.003+313.959+235.39+313.642C231.844+313.553+227.234+310.342+224.812+310.198C223.634+310.128+224.025+312.581+223.498+313.709C220.144+320.874+225.875+345.177+215.173+346.541C212.19+346.922+212.941+334.845+213.133+333.683C215.771+317.737+211.069+296.574+209.214+280.544C207.796+268.292+203.906+257.163+203.906+244.899C203.906+243.991+203.796+238.534+204.658+238.748C212.857+240.778+199.068+246.596+198.123+238.745C197.779+235.886+207.427+240.7+193.328+244.131C190.214+244.888+187.881+240.777+187.523+240.862C178.004+243.116+176.061+250.912+176.759+237.841C176.814+236.807+176.219+239.833+176.047+240.852C175.391+244.742+172.832+250.191+168.511+247.54C166.081+246.049+158.217+234.174+160.53+231.559C161.808+230.115+166.465+227.197+165.531+228.915C164.664+230.511+160.776+238.349+158.172+232.785C156.973+230.222+149.155+217.432+149.786+216.458C150.097+215.977+150.393+214.476+149.89+214.708C149.821+214.739+149.814+218.16+149.813+218.181C149.615+228.694+148.521+241.259+146.527+251.884C144.911+260.501+140.307+271.66+140.689+266.666C140.771+265.59+140.555+268.832+140.676+269.903C141.184+274.371+141.34+278.545+141.336+283.063C141.326+292.621+141.783+304.987+140.032+314.411C138.544+322.415+106.622+326.021+98.7246+324.794" fill="#ab03a7" stroke-linecap="butt" opacity="1" stroke-linejoin="round"/>
<path stroke="#ab03a7" stroke-width="2.06" d="M107.296+328.888C109.166+328.804+107.35+315.297+110.196+315.291C118.52+315.273+113.264+319.808+118.57+322.72C120.256+323.645+117.639+317.802+119.22+316.685C122.618+314.284+124.69+318.342+127.607+317.988L127.607+323.472C117.722+322.972+125.457+316.079+121.856+324.357C120.886+326.587+119.861+327.293+117.595+327.544C112.865+328.068+108.892+320.158+114.787+317.743C116.561+317.016+113.865+321.691+113.612+323.703C112.737+330.645+109.606+334.922+103.228+332.232" fill="#ab03a7" stroke-linecap="butt" opacity="1" stroke-linejoin="round"/>
</g>
</g>
</svg>
