<?xml version="1.0" encoding="UTF-8" standalone="no"?> <!-- Created with Vectornator for iOS (http://vectornator.io/) --><!DOCTYPE svg PUBLIC "-//W3C//DTD SVG 1.1//EN" "http://www.w3.org/Graphics/SVG/1.1/DTD/svg11.dtd">
<svg style="fill-rule:evenodd;clip-rule:evenodd;stroke-linecap:round;stroke-linejoin:round;" xmlns:vectornator="http://vectornator.io" xmlns:xlink="http://www.w3.org/1999/xlink" xmlns="http://www.w3.org/2000/svg" xml:space="preserve" version="1.1" viewBox="0 0 256 256">
<metadata>
<vectornator:setting key="DisplayWhiteBackground" value="0"/>
<vectornator:setting key="RulersVisible" value="1"/>
<vectornator:setting key="GridSpacing" value="2"/>
<vectornator:setting key="Units" value="Points"/>
<vectornator:setting key="DynamicGuides" value="1"/>
<vectornator:setting key="SnapToPoints" value="0"/>
<vectornator:setting key="CMYKEnabledKey" value="0"/>
<vectornator:setting key="SnapToGrid" value="0"/>
<vectornator:setting key="SnapToGuides" value="1"/>
<vectornator:setting key="ShowGrid" value="0"/>
<vectornator:setting key="SnapToEdges" value="0"/>
</metadata>
<defs/>
<g id="Layer 1" vectornator:layerName="Layer 1">
<path stroke="#000000" stroke-width="13" d="M15.6793+51.3183L237.053+50.4405" fill="none" stroke-linecap="round" opacity="1" stroke-linejoin="round"/>
<path stroke="#000000" stroke-width="13" d="M15.6793+207.842L237.053+206.964" fill="none" stroke-linecap="round" opacity="1" stroke-linejoin="round"/>
<g opacity="1">
<path stroke="#000000" stroke-width="0.54" d="M106.95+175.885C106.888+176.495+106.763+177.982+106.575+180.346C106.513+181.566+106.263+182.482+105.826+183.092C105.514+183.32+104.983+183.435+104.234+183.435C102.173+183.435+99.6133+182.863+96.5537+181.719C93.2443+180.575+90.9964+179.241+89.81+177.715C89.3105+177.105+88.811+175.046+88.3115+171.538C87.6246+166.963+86.8441+163.15+85.9699+160.1C83.5972+160.481+80.1317+161.434+75.5735+162.959C71.0153+164.484+68.0494+165.781+66.6757+166.849C65.7391+169.823+64.4903+173.445+62.9292+177.715C62.7419+178.707+62.539+179.622+62.3204+180.461C62.1019+181.3+61.5555+182.024+60.6814+182.634C60.494+182.71+60.213+182.748+59.8384+182.748C58.3398+182.748+55.8266+181.891+52.2987+180.175C48.7708+178.459+46.9444+177.334+46.8195+176.8C46.5697+175.885+47.1629+173.521+48.599+169.708C50.5971+164.218+51.7523+160.862+52.0645+159.642C50.7533+158.193+50.0976+156.744+50.0976+155.295C50.0976+154.99+50.1288+154.609+50.1913+154.151C50.3162+153.313+52.2206+151.864+55.9046+149.805L67.9869+104.393C68.1743+103.554+68.2055+102.029+68.0806+99.817C67.9557+97.9868+68.143+96.8048+68.6426+96.271C68.9548+95.966+69.7041+95.8135+70.8904+95.8135C73.8252+95.8135+78.0087+96.6332+83.4411+98.2728C88.8734+99.9124+92.1204+101.38+93.1819+102.677C93.5565+110.303+94.9614+121.741+97.3966+136.993C100.519+155.829+103.703+168.793+106.95+175.885ZM82.5045+144.657C81.6927+140.31+81.1932+137.451+81.0059+136.078C80.319+131.503+79.8507+126.736+79.601+121.78C78.3521+125.135+76.8848+129.787+75.1989+135.735C73.3881+141.988+72.4202+145.915+72.2954+147.517C73.4817+146.983+76.8848+146.03+82.5045+144.657Z" fill="#3c1be0" stroke-linecap="round" opacity="1" stroke-linejoin="round"/>
<path stroke="#000000" stroke-width="0.54" d="M194.709+178.859C194.272+181.833+193.523+183.473+192.461+183.778C190.963+184.159+188.09+183.702+183.844+182.405C179.348+181.033+176.788+179.66+176.164+178.287C175.977+177.83+175.883+177.296+175.883+176.686C175.883+176.305+175.961+175.656+176.117+174.741C176.273+173.826+176.351+173.064+176.351+172.454L176.351+125.669C173.417+131.998+169.576+146.221+164.831+168.336C164.769+168.564+164.737+168.869+164.737+169.251C164.737+169.937+164.847+171.024+165.065+172.511C165.284+173.998+165.393+174.97+165.393+175.428C165.331+177.563+165.237+178.936+165.112+179.546C164.8+180.918+164.144+181.719+163.145+181.948C162.521+182.177+161.428+182.291+159.867+182.291C151.75+182.291+146.161+180.728+143.102+177.601C142.602+177.143+142.415+176.305+142.54+175.084C142.664+173.559+142.664+172.568+142.54+172.11C140.229+164.256+138.169+157.392+136.358+151.52C131.987+137.26+129.146+128.834+127.835+126.241L127.835+167.306C127.835+168.145+128.084+169.365+128.584+170.966C129.208+172.873+129.552+174.055+129.614+174.513C129.864+175.885+129.927+177.563+129.802+179.546C129.677+181.833+129.24+183.244+128.49+183.778C128.116+184.083+127.398+184.236+126.336+184.236C124.026+184.236+121.278+183.778+118.094+182.863C114.66+182.024+112.63+181.109+112.006+180.118C111.694+179.66+111.538+179.088+111.538+178.402C111.538+177.944+111.647+177.239+111.865+176.286C112.084+175.332+112.193+174.589+112.193+174.055L112.193+101.075C112.193+100.236+112.505+99.2832+113.13+98.2156C113.754+97.148+114.472+96.4617+115.284+96.1566C116.346+95.6228+120.435+96.4235+127.554+98.5588C134.984+100.694+138.918+102.562+139.355+104.164C139.542+104.774+139.574+105.575+139.449+106.566C139.261+108.015+139.168+108.892+139.168+109.197C139.168+109.807+139.261+110.341+139.449+110.798L152.093+148.203C153.841+142.103+157.026+129.71+161.646+111.027C163.957+101.495+165.83+96.5379+167.266+96.1566C167.703+96.0041+168.203+95.9278+168.765+95.9278C169.826+95.9278+171.606+96.2329+174.103+96.843C176.851+97.6055+178.755+98.025+179.817+98.1012C184.75+98.5588+187.591+98.8638+188.34+99.0163C191.275+99.6264+192.929+100.77+193.304+102.448C193.429+102.906+193.491+103.401+193.491+103.935C193.491+104.621+193.335+105.594+193.023+106.852C192.711+108.11+192.555+109.044+192.555+109.654L192.555+172.682C192.555+173.369+192.945+174.398+193.726+175.771C194.506+177.143+194.834+178.173+194.709+178.859Z" fill="#3c1be0" stroke-linecap="round" opacity="1" stroke-linejoin="round"/>
<path stroke="#000000" stroke-width="0.54" d="M219.34+100.732C219.34+101.19+219.2+101.838+218.919+102.677C218.638+103.516+218.466+104.049+218.403+104.278C218.029+105.651+217.654+107.786+217.28+110.684L217.28+173.826C217.28+174.665+217.467+175.409+217.841+176.057C218.216+176.705+218.403+177.22+218.403+177.601C218.403+182.024+217.654+184.426+216.156+184.807C215.594+184.884+213.408+184.426+209.599+183.435C205.603+182.291+203.293+181.414+202.668+180.804C201.295+179.507+200.608+178.325+200.608+177.258C200.608+176.953+200.733+176.629+200.982+176.286C201.232+175.942+201.357+175.351+201.357+174.513L201.357+101.99C201.357+101.609+201.248+101.19+201.029+100.732C200.811+100.275+200.701+99.817+200.701+99.3595C200.826+97.7581+201.981+96.6904+204.167+96.1566C204.854+96.0041+206.29+96.0041+208.475+96.1566C211.16+96.3091+213.408+96.6904+215.219+97.3005C217.966+98.0631+219.34+99.207+219.34+100.732Z" fill="#3c1be0" stroke-linecap="round" opacity="1" stroke-linejoin="round"/>
</g>
<g opacity="1">
<path stroke="#000000" stroke-width="0.38" d="M39.8359+99.3627C39.8359+102.699+37.9783+105.301+34.2631+107.17C31.3674+108.638+28.3351+109.372+25.1662+109.372C16.7523+109.372+12.5453+103.533+12.5453+91.856C12.5453+87.0517+13.5015+81.7136+15.4137+75.8416C17.7631+68.6352+20.6041+65.032+23.9369+65.032C26.9419+65.032+30.1791+66.6667+33.6484+69.9363C37.1178+73.2059+38.8525+76.609+38.8525+80.1455C38.8525+84.5494+37.2407+88.0526+34.0172+90.6549C31.1762+92.9903+27.7887+94.158+23.855+94.158C23.0901+94.158+21.8607+93.5909+20.167+92.4565C20.3856+98.7955+21.9154+101.965+24.7564+101.965C27.1604+101.965+29.5234+101.131+31.8454+99.4628C34.1675+97.7946+35.6563+96.9605+36.3119+96.9605C38.6613+96.9605+39.8359+97.7613+39.8359+99.3627ZM30.903+80.4458C30.903+78.7776+30.5069+77.1928+29.7146+75.6915C28.9224+74.1902+27.8707+73.4395+26.5594+73.4395C24.7564+73.4395+23.3632+74.407+22.3798+76.3421C21.5603+78.0102+21.1505+79.9787+21.1505+82.2474C21.1505+83.5152+21.5056+84.5494+22.2159+85.3501C22.9261+86.1509+23.8276+86.5512+24.9204+86.5512C28.9088+86.5512+30.903+84.5161+30.903+80.4458Z" fill="#cb0ad1" stroke-linecap="round" opacity="1" stroke-linejoin="round"/>
<path stroke="#000000" stroke-width="0.38" d="M69.9326+71.0373C69.9326+72.5053+69.7141+73.7064+69.277+74.6406C69.0038+75.2411+68.4301+76.0752+67.556+77.1428C64.3325+81.0797+61.1363+85.0165+57.9674+88.9534C53.5419+94.6918+50.9467+98.8623+50.1818+101.465C50.6735+101.531+51.1379+101.565+51.575+101.565C52.8316+101.565+54.7166+101.298+57.2298+100.764C59.7431+100.23+61.628+99.9632+62.8846+99.9632C66.3813+99.9632+68.7306+101.698+69.9326+105.168L68.5394+107.27L66.3267+107.27C64.3598+107.203+61.5187+107.553+57.8035+108.321C54.0882+109.088+51.3291+109.472+49.5262+109.472C47.7232+109.472+46.1387+108.938+44.7728+107.87C43.1338+106.669+42.3142+105.034+42.3142+102.966C42.3142+100.497+43.5709+97.2275+46.0841+93.1571C47.6139+90.755+50.2091+87.1851+53.8697+82.4475C57.3664+78.0436+59.5518+75.0743+60.426+73.5396L60.0162+73.4395C57.2844+73.4395+54.5663+74.4571+51.8618+76.4922C49.1574+78.5274+47.7232+79.545+47.5593+79.545C46.5212+79.545+45.647+79.0612+44.9368+78.0937C44.2265+77.1261+43.8714+76.0084+43.8714+74.7406C43.8714+72.4719+46.6851+70.3033+52.3126+68.2348C57.0659+66.5667+60.7538+65.7326+63.3763+65.7326C67.7472+65.7326+69.9326+67.5008+69.9326+71.0373Z" fill="#cb0ad1" stroke-linecap="round" opacity="1" stroke-linejoin="round"/>
</g>
</g>
</svg>
