<?xml version="1.0" encoding="UTF-8" standalone="no"?> <!-- Created with Vectornator for iOS (http://vectornator.io/) --><!DOCTYPE svg PUBLIC "-//W3C//DTD SVG 1.1//EN" "http://www.w3.org/Graphics/SVG/1.1/DTD/svg11.dtd">
<svg style="fill-rule:evenodd;clip-rule:evenodd;stroke-linecap:round;stroke-linejoin:round;" xmlns:vectornator="http://vectornator.io" xmlns:xlink="http://www.w3.org/1999/xlink" xmlns="http://www.w3.org/2000/svg" xml:space="preserve" version="1.1" viewBox="0 0 512 512">
<metadata>
<vectornator:setting key="DisplayWhiteBackground" value="0"/>
<vectornator:setting key="RulersVisible" value="1"/>
<vectornator:setting key="SnapToEdges" value="0"/>
<vectornator:setting key="Units" value="Pixels"/>
<vectornator:setting key="DynamicGuides" value="1"/>
<vectornator:setting key="SnapToPoints" value="0"/>
<vectornator:setting key="CMYKEnabledKey" value="0"/>
<vectornator:setting key="SnapToGrid" value="0"/>
<vectornator:setting key="SnapToGuides" value="1"/>
<vectornator:setting key="ShowGrid" value="1"/>
<vectornator:setting key="GridSpacing" value="36"/>
</metadata>
<defs/>
<g id="Layer 1" vectornator:layerName="Layer 1" visibility="hidden">
<g opacity="1">
<path stroke="#090808" stroke-width="21.74" d="M446.398+63.0521L65.6022+63.0521C56.2351+63.0521+48.6416+81.6852+48.6416+104.67L48.6416+380.599C48.6416+403.584+56.2351+422.217+65.6022+422.217L446.398+422.217C455.765+422.217+463.358+403.584+463.358+380.599L463.358+104.67C463.358+81.6852+455.765+63.0521+446.398+63.0521Z" fill="#ddac2f" stroke-linecap="round" opacity="1" stroke-linejoin="round"/>
<g opacity="1">
<path stroke="#ab03a7" stroke-width="21.74" d="M409.201+319.407L463.358+319.407" fill="none" stroke-linecap="round" opacity="1" stroke-linejoin="round"/>
<path stroke="#ab03a7" stroke-width="21.74" d="M48.6416+319.407L91.0891+319.407" fill="none" stroke-linecap="round" opacity="1" stroke-linejoin="round"/>
<path stroke="#ab03a7" stroke-width="21.74" d="M91.0891+319.407L117.436+165.863" fill="none" stroke-linecap="round" opacity="1" stroke-linejoin="round"/>
<path stroke="#ab03a7" stroke-width="21.74" d="M117.436+165.863L180.375+165.863" fill="none" stroke-linecap="round" opacity="1" stroke-linejoin="round"/>
<path stroke="#ab03a7" stroke-width="21.74" d="M180.375+165.863L204.28+319.407" fill="none" stroke-linecap="round" opacity="1" stroke-linejoin="round"/>
<path stroke="#ab03a7" stroke-width="21.74" d="M204.28+319.407L266.246+319.407" fill="none" stroke-linecap="round" opacity="1" stroke-linejoin="round"/>
<path stroke="#ab03a7" stroke-width="21.74" d="M266.246+319.407L301.375+165.863" fill="none" stroke-linecap="round" opacity="1" stroke-linejoin="round"/>
<path stroke="#ab03a7" stroke-width="21.74" d="M301.375+165.863L366.266+165.863" fill="none" stroke-linecap="round" opacity="1" stroke-linejoin="round"/>
<path stroke="#ab03a7" stroke-width="21.74" d="M366.266+165.863L393.588+319.407" fill="none" stroke-linecap="round" opacity="1" stroke-linejoin="round"/>
<path stroke="#ab03a7" stroke-width="21.74" d="M393.588+319.407L409.201+319.407" fill="none" stroke-linecap="round" opacity="1" stroke-linejoin="round"/>
</g>
</g>
</g>
<g id="Layer 3" vectornator:layerName="Layer 3" visibility="hidden">
<g opacity="1">
<path stroke="#090808" stroke-width="21.74" d="M456.54+87.3069L55.4604+87.3069C45.5943+87.3069+37.5963+104.81+37.5963+126.401L37.5963+385.599C37.5963+407.19+45.5943+424.693+55.4604+424.693L456.54+424.693C466.406+424.693+474.404+407.19+474.404+385.599L474.404+126.401C474.404+104.81+466.406+87.3069+456.54+87.3069Z" fill="#ddac2f" stroke-linecap="round" opacity="1" stroke-linejoin="round"/>
<path stroke="#ab03a7" stroke-width="21.74" d="M152.737+189.746C106.809+203.378+101.225+348.236+101.225+303.907" fill="none" stroke-linecap="round" opacity="1" stroke-linejoin="round"/>
<path stroke="#ab03a7" stroke-width="21.74" d="M150.448+194.842C163.781+159.227+182.904+335.445+196.237+299.83" fill="none" stroke-linecap="round" opacity="1" stroke-linejoin="round"/>
<path stroke="#ab03a7" stroke-width="21.74" d="M120.685+252.942C143.845+247.786+165.367+253.961+188.224+253.961" fill="none" stroke-linecap="round" opacity="1" stroke-linejoin="round"/>
<path stroke="#ab03a7" stroke-width="21.74" d="M242.025+206.055C242.025+227.158+213.859+321.852+234.012+303.907" fill="none" stroke-linecap="round" opacity="1" stroke-linejoin="round"/>
<path stroke="#ab03a7" stroke-width="21.74" d="M246.604+205.035C248.759+212.71+290.82+278.424+300.406+278.424" fill="none" stroke-linecap="round" opacity="1" stroke-linejoin="round"/>
<path stroke="#ab03a7" stroke-width="21.74" d="M314.143+199.939C314.143+226.478+305.251+255.053+298.117+280.463" fill="none" stroke-linecap="round" opacity="1" stroke-linejoin="round"/>
<path stroke="#ab03a7" stroke-width="21.74" d="M316.432+202.997C332.47+224.418+349.629+269.418+349.629+295.752" fill="none" stroke-linecap="round" opacity="1" stroke-linejoin="round"/>
<path stroke="#ab03a7" stroke-width="21.74" d="M411.444+204.016C402.521+204.016+410.526+306.152+416.023+298.81" fill="none" stroke-linecap="round" opacity="1" stroke-linejoin="round"/>
</g>
</g>
<g id="Layer 2" vectornator:layerName="Layer 2">
<g opacity="1">
<path stroke="#090808" stroke-width="21.74" d="M463.37+74.3939L49.9482+74.3939C39.7785+74.3939+31.5344+93.2369+31.5344+116.481L31.5344+395.519C31.5344+418.763+39.7785+437.606+49.9482+437.606L463.37+437.606C473.539+437.606+481.783+418.763+481.783+395.519L481.783+116.481C481.783+93.2369+473.539+74.3939+463.37+74.3939Z" fill="#ddac2f" stroke-linecap="round" opacity="1" stroke-linejoin="round"/>
<g opacity="1">
<g>
<path stroke-linecap="round" stroke-width="10.23" stroke="#100f10" d="M441.45+360.527C413.141+360.527+92.6464+360.527+92.6464+360.527" fill="none" stroke-linejoin="round"/>
<path d="M412.294+395.176L449.804+364.486L454.642+360.527L449.804+356.568L412.294+325.878C410.107+324.089+406.885+324.412+405.096+326.598C403.307+328.784+403.629+332.007+405.816+333.796L443.326+364.486L443.326+356.568L405.816+387.258C403.629+389.047+403.307+392.27+405.096+394.456C406.885+396.642+410.107+396.965+412.294+395.176Z" fill="#100f10"/>
</g>
</g>
<g opacity="1">
<g>
<path stroke-linecap="round" stroke-width="9.31" stroke="#0d0d0f" d="M92.6464+150.328C92.6464+169.64+92.6464+360.527+92.6464+360.527" fill="none" stroke-linejoin="round"/>
<path d="M124.179+176.862L96.2491+142.725L92.6464+138.322L89.0436+142.725L61.1136+176.862C59.4856+178.851+59.7789+181.784+61.7686+183.412C63.7584+185.04+66.6911+184.747+68.3191+182.757L96.2491+148.62L89.0436+148.62L116.974+182.757C118.602+184.747+121.534+185.04+123.524+183.412C125.514+181.784+125.807+178.851+124.179+176.862Z" fill="#0d0d0f"/>
</g>
</g>
<path stroke="#ab03a7" stroke-width="2.06" d="M110.288+307.832C118.109+308.85+128.872+305.599+136.435+303.782C141.219+302.633+146.353+304.337+143.055+303.697C141.557+303.407+144.151+281.5+144.293+280.041C145.981+262.751+146.593+264.129+149.292+251.553C150.427+246.263+148.06+222.193+154.866+219.705C162.227+217.015+166.238+233.854+168.832+234.895C169.77+235.272+167.736+231.645+167.223+232.467C166.208+234.093+170.559+234.647+171.914+236.042C174.18+238.374+173.577+244.807+177.991+245.926C180.563+246.578+176.916+239.124+179.528+238.626C183.563+237.856+182.725+241.638+184.689+243.237C185.258+243.7+186.05+242.615+186.77+242.403C193.071+240.548+196.643+243.282+201.713+238.472C202.306+237.909+202.871+237.161+204.032+237.816C207.249+239.63+208.923+243.927+212.605+244.642C212.832+244.686+212.898+256.205+213.222+257.256C218.241+273.575+219.544+292.124+221.829+309.114C222.145+311.467+220.665+327.398+221.599+327.35C223.801+327.236+218.672+323.767+218.912+321.728C219.699+315.033+219.426+301.431+223.908+298.674C228.145+296.068+236.889+298.592+241.64+298.592C244.518+298.592+253.139+298.374+250.272+298.592C246.988+298.841+258.831+300.831+260.136+298.018C260.187+297.908+269.9+297.208+272.408+298.537C273.676+299.209+269.424+296.639+268.21+297.39C266.841+298.238+268.21+294.333+268.21+292.804C268.21+290.717+268.46+289.262+268.873+287.204C270.345+279.868+269.443+275.886+269.443+268.149C269.443+261.529+275.504+211.664+279.249+210.295C281.301+209.545+282.506+213.9+282.842+214.962C284.625+220.585+291.331+249.171+295.582+252.241C297.197+253.407+299.051+248.342+300.827+249.283C302.401+250.118+301.88+254.935+303.235+253.816C306.62+251.016+317.626+253.133+318.561+251.118C319.69+248.686+335.35+253.229+336.618+250.497C337.398+248.816+335.417+256.986+337.055+255.972C338.492+255.082+337.144+262.488+337.144+265.283C337.144+272.938+338.226+279.39+340.154+286.527C340.809+288.951+344.331+291.244+345.371+293.855C351.579+309.45+350.195+303.752+376.66+303.752L376.66+308.23C351.084+308.23+341.694+310.819+335.483+287.613C332.752+277.409+330.639+265.763+332.945+254.962C333.041+254.512+334.858+249.316+336.585+250.43C346.281+256.682+321.565+255.301+318.706+256.055C316.173+256.722+308.206+255.445+310.839+255.399C314.84+255.329+302.486+259.543+298.419+253.816C298.366+253.74+300.758+253.857+301.296+253.105C303.012+250.709+294.839+257.101+292.343+255.399C286.847+251.652+280.75+229.131+279.322+223.102C278.64+220.224+276.345+214.565+279.865+214.773C280.687+214.822+281.179+212.231+280.423+212.534C278.883+213.152+280.812+228.5+280.251+230.566C275.075+249.609+278.305+269.497+273.595+286.936C272.997+289.149+274.446+298.135+272.32+299.547C271.004+300.421+265.982+298.415+267.593+298.537C274.616+299.07+267.885+302.22+263.835+303.07C262.75+303.297+261.067+302.7+260.283+302.414C259.245+302.034+249.157+303.329+237.325+303.07C233.998+302.997+229.674+300.375+227.402+300.257C226.297+300.2+226.664+302.203+226.169+303.124C223.023+308.975+228.398+328.821+218.36+329.935C215.561+330.245+216.265+320.384+216.445+319.435C218.92+306.414+214.509+289.132+212.769+276.042C211.439+266.038+207.79+256.949+207.79+246.935C207.79+246.193+207.687+241.738+208.495+241.912C216.187+243.57+203.251+248.321+202.365+241.91C202.042+239.575+211.093+243.506+197.867+246.308C194.946+246.926+192.757+243.569+192.421+243.638C183.491+245.479+181.669+251.845+182.323+241.172C182.375+240.328+181.816+242.798+181.655+243.63C181.04+246.807+178.639+251.257+174.586+249.092C172.307+247.874+164.929+238.177+167.099+236.042C168.298+234.862+172.667+232.479+171.791+233.883C170.977+235.186+167.33+241.587+164.887+237.043C163.762+234.95+156.428+224.506+157.02+223.71C157.312+223.318+157.589+222.092+157.118+222.281C157.053+222.307+157.046+225.1+157.046+225.118C156.86+233.702+155.833+243.963+153.963+252.639C152.447+259.676+148.128+268.788+148.486+264.709C148.563+263.831+148.36+266.478+148.474+267.353C148.951+271.001+149.097+274.41+149.093+278.099C149.084+285.904+149.513+296.002+147.87+303.697C146.475+310.234+116.528+313.178+109.12+312.176" fill="#ab03a7" stroke-linecap="butt" opacity="1" stroke-linejoin="round"/>
<path stroke="#ab03a7" stroke-width="2.06" d="M117.161+315.519C118.914+315.451+117.211+304.421+119.881+304.416C127.689+304.401+122.759+308.105+127.737+310.482C129.318+311.238+126.864+306.466+128.347+305.554C131.534+303.594+133.477+306.907+136.214+306.619L136.214+311.097C126.941+310.688+134.197+305.06+130.819+311.82C129.909+313.641+128.948+314.217+126.822+314.422C122.385+314.849+118.658+308.391+124.188+306.419C125.852+305.825+123.323+309.643+123.085+311.286C122.265+316.954+119.327+320.447+113.344+318.25" fill="#ab03a7" stroke-linecap="butt" opacity="1" stroke-linejoin="round"/>
</g>
</g>
</svg>
